<svg width="1200" height="630" viewBox="0 0 1200 630" fill="none" xmlns="http://www.w3.org/2000/svg">
  <!-- Background -->
  <rect width="1200" height="630" fill="#ffffff"/>
  
  <!-- Gradient overlay -->
  <defs>
    <linearGradient id="grad1" x1="0%" y1="0%" x2="100%" y2="100%">
      <stop offset="0%" style="stop-color:#16a34a;stop-opacity:0.1" />
      <stop offset="100%" style="stop-color:#15803d;stop-opacity:0.15" />
    </linearGradient>
  </defs>
  <rect width="1200" height="630" fill="url(#grad1)"/>
  
  <!-- Decorative document icon in background -->
  <g opacity="0.05">
    <rect x="750" y="80" width="350" height="470" rx="20" fill="#16a34a"/>
    <rect x="800" y="160" width="250" height="20" rx="10" fill="#ffffff"/>
    <rect x="800" y="210" width="250" height="20" rx="10" fill="#ffffff"/>
    <rect x="800" y="260" width="200" height="20" rx="10" fill="#ffffff"/>
    <rect x="800" y="330" width="250" height="20" rx="10" fill="#ffffff"/>
    <rect x="800" y="380" width="180" height="20" rx="10" fill="#ffffff"/>
    <rect x="800" y="430" width="220" height="20" rx="10" fill="#ffffff"/>
  </g>
  
  <!-- Main icon -->
  <g transform="translate(100, 180)">
    <rect width="140" height="180" rx="10" fill="#16a34a"/>
    <rect x="20" y="30" width="100" height="12" rx="6" fill="#ffffff"/>
    <rect x="20" y="60" width="100" height="12" rx="6" fill="#ffffff"/>
    <rect x="20" y="90" width="75" height="12" rx="6" fill="#ffffff"/>
    <rect x="20" y="120" width="100" height="12" rx="6" fill="#ffffff"/>
    <rect x="20" y="150" width="60" height="12" rx="6" fill="#ffffff"/>
  </g>
  
  <!-- Main text -->
  <text x="280" y="260" font-family="Arial, sans-serif" font-size="72" font-weight="bold" fill="#1f2937">
    CV Builder
  </text>
  
  <!-- Subtitle -->
  <text x="280" y="320" font-family="Arial, sans-serif" font-size="32" fill="#6b7280">
    Create Professional CVs in Minutes
  </text>
  
  <!-- Features -->
  <g transform="translate(280, 370)">
    <!-- Feature 1 -->
    <circle cx="10" cy="10" r="8" fill="#16a34a"/>
    <text x="30" y="17" font-family="Arial, sans-serif" font-size="24" fill="#4b5563">
      Live Preview
    </text>
    
    <!-- Feature 2 -->
    <circle cx="200" cy="10" r="8" fill="#16a34a"/>
    <text x="220" y="17" font-family="Arial, sans-serif" font-size="24" fill="#4b5563">
      PDF Export
    </text>
    
    <!-- Feature 3 -->
    <circle cx="370" cy="10" r="8" fill="#16a34a"/>
    <text x="390" y="17" font-family="Arial, sans-serif" font-size="24" fill="#4b5563">
      ATS-Friendly
    </text>
  </g>
  
  <!-- Domain -->
  <text x="280" y="490" font-family="Arial, sans-serif" font-size="20" fill="#9ca3af">
    cv.harekrishnarai.me
  </text>
</svg>
